<?xml version="1.0" encoding="UTF-8" standalone="no"?>
<svg
   version="1.0"
   width="3000.000000pt"
   height="900.000000pt"
   viewBox="0 0 3000.000000 900.000000"
   preserveAspectRatio="xMidYMid meet"
   id="svg1"
   sodipodi:docname="logo.svg"
   inkscape:version="1.3.2 (091e20e, 2023-11-25, custom)"
   xmlns:inkscape="http://www.inkscape.org/namespaces/inkscape"
   xmlns:sodipodi="http://sodipodi.sourceforge.net/DTD/sodipodi-0.dtd"
   xmlns="http://www.w3.org/2000/svg"
   xmlns:svg="http://www.w3.org/2000/svg">
  <defs
     id="defs1">
    <rect
       x="0"
       y="0"
       width="4000"
       height="1200"
       id="rect2" />
  </defs>
  <sodipodi:namedview
     id="namedview1"
     pagecolor="#ffffff"
     bordercolor="#000000"
     borderopacity="0.25"
     inkscape:showpageshadow="2"
     inkscape:pageopacity="0.0"
     inkscape:pagecheckerboard="0"
     inkscape:deskcolor="#d1d1d1"
     inkscape:document-units="pt"
     inkscape:zoom="0.30052038"
     inkscape:cx="1623.8499"
     inkscape:cy="600.62482"
     inkscape:window-width="2560"
     inkscape:window-height="1057"
     inkscape:window-x="-8"
     inkscape:window-y="-8"
     inkscape:window-maximized="1"
     inkscape:current-layer="svg1" />
  <metadata
     id="metadata1">
Created by potrace 1.14, written by Peter Selinger 2001-2017
</metadata>
  <path
     style="font-style:italic;font-weight:800;font-stretch:semi-condensed;font-size:666.667px;font-family:'Noto Serif Display';-inkscape-font-specification:'Noto Serif Display Ultra-Bold Italic Semi-Condensed';text-align:center;text-anchor:middle;white-space:pre;fill:#ffffff;stroke-width:3"
     d="m 67.333448,606.58375 1.333334,-6.66667 h 27.333346 q 14.000012,0 25.333342,-2.66667 12.00001,-2.66666 20.00001,-10.66667 8.66667,-8.66667 12.66668,-24.66668 l 79.33337,-378.66685 q 2.66667,-12 3.33333,-16.66667 1.33334,-5.33334 1.33334,-9.33334 0,-12.66667 -12.66668,-16.00001 -12.66667,-4 -32.66668,-4 h -26.66668 l 1.33334,-6.66667 h 188.66676 l 34.00001,348.00017 172.66675,-348.00017 h 170.00009 l -1.33334,6.66667 h -8 q -19.33334,0 -36.00002,6.66667 -16.00001,6 -21.33334,30.66668 L 585.3337,557.91706 q -1.33333,7.33334 -2.66667,12.66667 -1.33333,5.33334 -1.33333,8.66668 0,13.33334 12.66667,17.33334 12.66667,3.33333 31.33335,3.33333 h 8.66667 l -2,6.66667 H 398.66694 l 2,-6.66667 h 11.33334 q 17.33334,0 30.00002,-3.33333 12.66667,-3.33334 20.66667,-12.00001 8.00001,-9.33334 10.66668,-25.33334 L 559.33369,153.2502 336.00025,606.58375 H 296.00023 L 246.66687,153.91686 161.33349,557.25039 q -0.66666,6.66667 -2,11.33334 -0.66666,4.66667 -0.66666,8.00001 0,15.33334 14,19.33334 14.00001,4 40.00002,4 h 12.66667 l -1.33333,6.66667 z m 734.666592,6.66667 q -32.00001,0 -54.66669,-14.66667 -22.00001,-15.33334 -34.00002,-42.66669 -11.33334,-28.00001 -11.33334,-66.6667 0,-29.33335 6.66667,-62.6667 7.33334,-33.33335 22.66668,-66.00003 15.33334,-32.66668 39.33335,-59.33336 24.00001,-26.66668 58.6667,-42.66669 34.66668,-16.00001 80.00004,-16.00001 24.00001,0 42.00002,6.66667 18.66667,6.00001 30.66668,14.66668 l 67.33337,-14.66668 h 24 l -50,236.66679 q -2,8.66667 -4.6667,22.00001 -2.6667,12.66667 -4.6667,26.00001 -2,13.33334 -2,23.33334 0,16.66668 6,24.66668 6.6667,8.00001 17.3334,8.00001 12,0 24,-7.33334 12,-7.33334 20.6667,-15.33334 l 4,6.66667 q -12.6667,9.33334 -26.6667,18.66668 -13.3333,9.33333 -31.3333,14.66667 -18.0001,6 -43.3334,6 -30.66669,0 -48.66669,-15.33334 -17.33335,-16.00001 -17.33335,-47.33336 0,-19.33334 1.33334,-33.33335 2,-14.66667 4.66667,-29.33334 h -2.66667 q -18.66668,65.33336 -46.66669,95.33338 -28.00001,30.00001 -71.33337,30.00001 z m 40.00002,-24.00001 q 12.66667,0 24.66668,-11.33334 12,-12 22.66668,-31.33335 10.66667,-20.00001 19.33334,-45.33335 8.66667,-25.33335 14.00001,-52.00003 l 38.66668,-184.66676 q -6.66667,-7.33333 -16.00001,-10 -9.33333,-3.33333 -20.00001,-3.33333 -22.66667,0 -41.33335,17.33334 -18.00001,17.33334 -32.66668,46.66669 -14.00001,28.66668 -23.33335,63.33336 -9.33333,34.00002 -14.66667,69.33337 -4.66667,34.66668 -4.66667,63.33336 0,29.33335 4,46.66669 4,17.33334 11.33334,24.66668 8.00001,6.66667 18.00001,6.66667 z m 238.66644,17.33334 0.6667,-6.66667 h 6 q 16.6667,0 28.6667,-3.33333 12.6667,-4 23.3333,-12.00001 11.3334,-8.66667 23.3334,-24.00001 L 1248,449.91701 1186.6666,284.58359 q -3.3333,-10.66667 -7.3333,-16.66667 -3.3334,-6.66667 -8.6667,-9.33334 -4.6667,-2.66667 -12.6667,-2.66667 h -7.3333 l 1.3333,-6.66667 h 133.3334 l 44.6667,133.3334 98.6667,-133.3334 h 62 l -1.3333,6.66667 h -7.3333 q -15.3334,0 -28.6667,4.00001 -12.6667,3.33333 -25.3334,13.33334 -12.6666,10 -28,29.33334 L 1333.3333,389.25031 1398,553.91706 q 8.6667,21.33334 14,31.33335 6,9.33334 11.3334,12 6,2.66667 12,2.66667 h 5.3333 l -1.3333,6.66667 h -140.0001 l -48.6667,-149.3334 -110.6667,149.3334 z m 537.9995,0 2,-6.66667 h 8.6666 q 12,0 23.3334,-2.66667 12,-2.66666 20.6667,-10.66667 8.6666,-8 11.3333,-24.00001 l 80.6667,-380.66685 q 2,-7.33334 2.6667,-12.66667 0.6666,-6.00001 0.6666,-10.00001 0.6667,-13.33334 -10,-17.33334 -10,-4.66667 -32.6666,-4.66667 h -8.6667 l 1.3333,-6.66667 h 224.0001 l -1.3333,6.66667 h -8 q -12.6667,0 -24,2.66667 -10.6667,2 -18.6667,10.66667 -7.3333,8 -10.6667,24.66668 l -44,211.33343 143.3334,-135.33339 q 34.6667,-31.33335 49.3334,-50.6667 15.3333,-19.33334 15.3333,-36.00001 0,-10.66668 -6.6667,-16.00001 -6,-6 -19.3333,-8.66667 -12.6667,-2.66667 -32.6667,-2.66667 l 1.3333,-6.66667 h 170.6668 l -2,6.66667 q -13.3333,0 -24,2.66667 -10.6667,2 -21.3334,7.33333 -10.6666,5.33334 -22.6666,15.33335 -11.3334,9.33333 -26.6667,23.33334 l -154.6668,146.66674 37.3334,-42.00002 82.6667,224.66677 q 13.3333,35.33335 20.6667,54.00003 7.3333,18.00001 12.6666,24.66668 5.3334,6 12.0001,6 h 2.6666 l -2,6.66667 h -44 q -32,0 -53.3334,-4.66667 -21.3333,-5.33333 -36,-16.66667 -14,-12.00001 -24.6667,-32.00002 -10.6666,-20.66667 -20.6666,-52.00002 l -41.3334,-125.3334 30,-22.00001 -48,43.33336 -34.6667,160.66674 q -1.3333,6.66667 -2.6666,12.66667 -1.3334,5.33334 -1.3334,8.66668 0,13.33334 12.6667,17.33334 13.3333,3.33333 32.6667,3.33333 h 8.6666 l -2,6.66667 z m 638.6666,6.66667 q -64,0 -103.3334,-34.66668 -38.6667,-35.33335 -38.6667,-106.66672 0,-28.66668 6.6667,-60.00003 7.3333,-31.33335 23.3333,-61.33336 16.0001,-30.66668 40.6667,-54.6667 25.3334,-24.66668 60.0001,-38.66668 35.3333,-14.66668 82,-14.66668 37.3334,0 67.3334,14.66668 30.6667,14 48.6667,45.33335 18.6666,30.66669 18.6666,80.66671 0,27.33335 -7.3333,58.66669 -6.6667,31.33335 -22,62.00004 -15.3334,30.00001 -39.3334,55.33336 -24,24.66667 -58,39.33335 -34,14.66667 -78.6667,14.66667 z m 3.3333,-6.66667 q 19.3334,0 34.6667,-17.33334 15.3334,-18.00001 26.6667,-46.66669 12,-29.33335 19.3333,-64.6667 8,-36.00002 12,-72.6667 4.0001,-36.66668 4.0001,-68.6667 0,-32.66668 -3.3334,-51.33336 -2.6667,-19.33334 -10.6667,-27.33335 -7.3333,-8.66667 -21.3333,-8.66667 -18,0 -34,16.66668 -15.3334,16.66667 -28,45.33335 -12,28.66669 -20.6667,64.00004 -8.6667,35.33335 -13.3333,73.33336 -4.6667,37.33336 -4.6667,72.00004 0,47.33336 9.3333,66.6667 10,19.33334 30,19.33334 z m 547.3335,6.66667 q -39.3334,0 -61.3334,-19.33334 -21.3333,-20.00001 -21.3333,-52.66669 0,-14.00001 2,-31.33335 2,-17.33334 7.3333,-40.00002 l 19.3334,-89.33338 q 2,-8.66667 4,-21.33334 2.6666,-13.33334 4.6666,-27.33335 2.6667,-14.66667 2.6667,-26.00001 0,-8.66667 -1.3333,-17.33334 -1.3334,-9.33334 -6.6667,-15.33334 -4.6667,-6.00001 -15.3333,-6.00001 -14.0001,0 -26.6667,10.66667 -12,10.66668 -22.6667,28.66669 -10,17.33334 -17.3333,38.00001 -7.3334,20.00001 -12,40.00002 l -50.6667,222.00011 h -109.3334 l 62.6667,-296.00014 q 1.3333,-8.66667 2.6666,-18.00001 2,-9.33334 2,-15.33334 0,-10.66667 -5.3333,-16.00001 -4.6667,-5.33334 -22.6667,-5.33334 h -13.3333 l 0.6667,-6.66667 h 155.3334 l -12.6667,81.33338 h 1.3333 q 14.6667,-34.00002 31.3334,-52.6667 16.6666,-19.33334 38.6667,-27.33334 22,-8.00001 50.6666,-8.00001 29.3334,0 46.6667,10.66668 17.3334,10.66667 24.0001,28.00001 7.3333,17.33334 7.3333,38.00002 0,17.33334 -4,38.66668 -3.3333,20.66668 -7.3334,38.66669 l -21.3333,103.33338 q -3.3333,18.66668 -6.6667,34.00002 -2.6666,15.33334 -2.6666,29.33335 0,14.66667 6,22.66668 6,7.33333 16.6666,7.33333 11.3334,0 21.3334,-6 10,-6 18,-13.33334 8,-8 14,-14.00001 l 3.3333,5.33334 q -14.6666,18.66667 -39.3333,33.33335 -24.6667,14.66667 -62.6667,14.66667 z m 225.3332,0 q -32,0 -52.6667,-16.00001 -20.6667,-16.66667 -30.6667,-45.33335 -10,-29.33335 -10,-66.00003 0,-28.66668 6.6667,-61.33337 7.3333,-33.33335 22,-65.33336 14.6667,-32.66668 38,-58.6667 23.3334,-26.66668 56.0001,-42.00002 32.6666,-16.00001 76,-16.00001 22,0 35.3334,3.33334 14,3.33333 26,10.66667 1.3333,-8.66667 4,-20.66668 2.6666,-12.66667 3.3333,-19.33334 l 11.3333,-56.66669 q 2,-9.33334 2.6667,-17.33334 1.3333,-8.00001 1.3333,-14.66668 0,-10 -6,-15.33334 -6,-6 -28,-6 h -11.3333 l 1.3333,-6.666672 h 165.3334 l -80.6667,375.333512 q -2,11.33334 -6,28.00002 -3.3333,16.00001 -6,32.00001 -2.6666,15.33334 -2.6666,24.66668 0,16.00001 5.3333,24.00001 6,8.00001 17.3333,8.00001 13.3334,0 26,-8.66667 13.3334,-8.66667 20.6667,-15.33334 l 4,6.66667 q -14,11.33334 -28,20.00001 -14,8.66667 -31.3333,13.33334 -16.6667,5.33333 -40.6667,5.33333 -30.6667,0 -49.3334,-16.00001 -18,-16.66667 -18,-48.00002 0,-20.66668 1.3333,-33.33335 1.3334,-13.33334 4,-28.00001 h -3.3333 q -14,48.66669 -33.3333,76.6667 -18.6667,27.33335 -42.0001,38.00002 -22.6666,10.66667 -48,10.66667 z m 48,-26.00001 q 12,0 22.6667,-10.00001 11.3334,-10.66667 20.6667,-27.33334 10,-17.33334 16.6667,-36.66669 7.3333,-20.00001 11.3333,-38.00002 l 45.3334,-209.33343 q -6,-6.66667 -15.3334,-10.00001 -8.6666,-4 -19.3333,-4 -20,0 -38,14.66668 -17.3334,14.66667 -32.0001,40.00002 -14,25.33334 -24.6666,58.66669 -10.6667,33.33335 -16.6667,70.00003 -5.3333,36.00002 -5.3333,72.66671 0,30.66668 4.6666,48.00002 5.3334,17.33334 12.6667,24.66668 8,6.66667 17.3333,6.66667 z m 425.3336,26.00001 q -46.6667,0 -80.6667,-15.33334 -34,-15.33334 -52,-46.66669 -18,-31.33335 -18,-80.6667 0,-27.33335 7.3333,-58.6667 8,-31.33335 24,-61.33336 16,-30.00002 41.3334,-54.00003 26,-24.66668 62.6667,-39.33335 36.6667,-14.66668 85.3334,-14.66668 49.3333,0 76,20.66668 26.6667,20.66668 26.6667,58.6667 0,36.00001 -24.6667,63.33336 -24,26.66668 -66.6667,41.33335 -42,14.66668 -96.6667,14.66668 h -24.6667 q -0.6667,4 -1.3333,12.66667 0,8.66667 -0.6667,16.66668 0,8 0,12 0,45.33336 6.6667,72.6667 7.3333,26.66668 20.6667,38.66669 14,11.33334 32.6666,11.33334 36.0001,0 58.0001,-28.66668 22,-28.66668 34.6666,-74.00004 6,2 10.0001,8.66667 4,6.66667 4,20.66668 0,18.00001 -14.0001,37.33335 -13.3333,18.66668 -40.6666,31.33335 -27.3334,12.66667 -70.0001,12.66667 z m -28.6667,-178.66675 q 24.0001,0 42.6667,-11.33334 18.6667,-11.33334 32,-30.66668 13.3334,-20.00001 20.0001,-44.00002 7.3333,-24.66668 7.3333,-50.6667 0,-26.00001 -7.3333,-36.00001 -6.6667,-10.00001 -21.3334,-10.00001 -13.3333,0 -26,12.66667 -12,12.00001 -23.3333,36.00002 -11.3334,23.33335 -20.0001,57.33336 -8.6666,34.00002 -14.6666,76.66671 z m 317.9997,178.66675 q -40.6667,0 -62,-18.00001 -21.3334,-18.00001 -21.3334,-53.33336 0,-10 1.3334,-20.66667 1.3333,-11.33334 4,-26.00002 2.6666,-14.66667 6.6666,-34.00001 l 63.3334,-300.00015 q 2,-8.66667 3.3333,-17.33334 2,-8.66667 2,-14.00001 0,-10 -5.3333,-16.66667 -5.3333,-6.66667 -24,-6.66667 h -14 l 1.3333,-6.666672 h 164.0001 l -88.6667,404.000202 q -2.6667,12 -4.6667,24.00001 -2,11.33334 -3.3333,20.66667 -0.6667,8.66667 -0.6667,15.33334 0.6667,14.66668 6,22.00002 5.3334,6.66667 18,6.66667 14.6667,0 27.3334,-10.00001 13.3333,-10 24,-21.33334 l 4,6 q -10.6667,12.00001 -24,22.66668 -13.3334,10.66667 -32,16.66667 -18,6.66667 -45.3334,6.66667 z"
     id="text1"
     transform="matrix(0.78300445,0,0,0.97363794,-65.722854,102.81665)"
     aria-label="Max Kondel" />
</svg>
