<?xml version="1.0" standalone="no"?>
<!DOCTYPE svg PUBLIC "-//W3C//DTD SVG 20010904//EN"
 "http://www.w3.org/TR/2001/REC-SVG-20010904/DTD/svg10.dtd">
<svg version="1.0" xmlns="http://www.w3.org/2000/svg"
 width="3000.000000pt" height="900.000000pt" viewBox="0 0 3000.000000 900.000000"
 preserveAspectRatio="xMidYMid meet">
<metadata>
Created by potrace 1.14, written by Peter Selinger 2001-2017
</metadata>
<g transform="translate(0.000000,900.000000) scale(0.100000,-0.100000)"
fill="#FFFFFF" stroke="none">
<path d="M0 4500 l0 -4500 15000 0 15000 0 0 4500 0 4500 -15000 0 -15000 0 0
-4500z m29550 0 l0 -4050 -505 0 -505 0 0 2905 0 2905 -245 0 -245 0 0 -2905
0 -2905 -827 0 -828 1 130 43 c231 77 438 174 642 300 l93 57 0 241 0 240 -22
-16 c-221 -157 -504 -308 -749 -399 -316 -118 -588 -163 -938 -154 -181 4
-237 10 -341 32 -282 59 -516 164 -739 330 -343 257 -545 564 -605 924 -16 93
-22 362 -10 409 l6 22 1740 0 1740 0 -7 113 c-30 490 -172 846 -460 1145 -300
312 -650 495 -1100 573 -146 26 -479 36 -640 20 -498 -50 -899 -236 -1236
-571 -297 -296 -469 -644 -530 -1070 -20 -138 -18 -496 4 -634 70 -446 248
-790 568 -1102 214 -208 469 -367 749 -469 l95 -34 -1609 -1 c-1283 0 -1607 3
-1603 13 3 6 415 858 916 1892 501 1034 914 1888 917 1898 5 16 -9 17 -231 15
l-236 -3 -792 -1607 c-435 -884 -794 -1604 -798 -1600 -4 4 -377 728 -830
1610 l-822 1602 -245 0 c-228 0 -244 -1 -238 -17 7 -19 1761 -3446 1878 -3671
l70 -132 -1464 0 -1463 1 146 49 c228 77 422 168 628 295 l91 56 0 240 c0 190
-3 238 -12 232 -7 -4 -58 -38 -113 -74 -396 -263 -799 -419 -1225 -475 -191
-25 -532 -15 -698 20 -584 124 -1082 512 -1272 990 -58 146 -81 264 -87 442
-3 89 -3 182 1 208 l7 46 1740 0 1739 0 0 34 c0 18 -5 91 -10 161 -44 538
-266 954 -672 1261 -351 264 -717 386 -1198 401 -230 6 -375 -4 -565 -42 -714
-143 -1295 -678 -1474 -1357 -50 -188 -65 -318 -65 -553 0 -233 14 -357 65
-552 116 -450 407 -846 829 -1127 106 -71 315 -176 440 -221 l95 -34 -1102 -1
-1103 0 0 2403 0 2402 522 -3 c519 -4 863 5 1278 33 1455 99 2775 383 3555
765 273 133 453 259 620 432 119 123 189 221 256 362 75 156 101 267 106 457
7 224 -24 364 -118 522 -163 275 -479 435 -989 501 -284 37 -422 39 -1845 30
-1740 -11 -3766 -11 -5345 0 -1451 10 -1747 1 -2110 -60 -482 -81 -783 -266
-926 -569 -62 -132 -75 -189 -81 -360 -6 -172 8 -268 58 -413 63 -179 153
-316 314 -478 170 -171 369 -306 638 -434 747 -354 2078 -648 3357 -740 85 -6
170 -13 188 -16 l32 -5 0 -2414 0 -2415 -500 0 -500 0 0 1193 c0 705 -4 1238
-10 1304 -21 239 -66 407 -160 598 -199 405 -584 676 -1090 766 -163 30 -482
37 -646 15 -378 -50 -689 -199 -959 -458 -64 -61 -143 -145 -177 -187 -33 -42
-65 -78 -69 -79 -5 -2 -9 146 -9 332 l0 336 -240 0 -240 0 0 -1910 0 -1910
-460 0 -460 0 0 1910 0 1910 -240 0 -240 0 0 -1347 0 -1348 -63 -82 c-322
-420 -612 -623 -1006 -705 -124 -25 -461 -36 -583 -18 -148 21 -268 58 -393
120 -350 173 -549 471 -584 877 -7 73 -11 571 -11 1311 l0 1192 -240 0 -240 0
0 -1202 c0 -731 4 -1256 10 -1338 23 -301 93 -517 236 -733 142 -213 384 -404
647 -513 l82 -34 -1927 0 -1928 0 0 1189 0 1188 81 114 c319 446 635 747 934
890 156 75 235 94 390 94 120 0 137 -3 222 -32 175 -61 388 -184 592 -340 45
-35 84 -63 86 -61 1 2 65 90 140 197 l138 195 -33 25 c-247 193 -525 343 -745
402 -114 30 -311 37 -430 15 -324 -61 -632 -249 -958 -586 -124 -128 -256
-283 -351 -413 -28 -37 -53 -67 -58 -67 -4 0 -8 227 -8 505 l0 505 -240 0
-240 0 0 -1910 0 -1910 -500 0 -500 0 0 4050 0 4050 14550 0 14550 0 0 -4050z
m-14495 3545 c792 0 2072 3 2845 5 1506 5 1504 5 1805 -45 422 -71 636 -208
721 -461 69 -206 23 -469 -120 -683 -173 -259 -480 -473 -941 -654 -898 -352
-2185 -579 -3670 -647 -247 -11 -1005 -13 -1168 -3 l-107 6 0 349 0 348 -245
0 -245 0 0 -335 0 -335 -24 0 c-45 0 -378 30 -611 56 -952 104 -1831 294
-2480 537 -410 153 -674 306 -876 507 -129 129 -195 226 -244 360 -89 248 -66
466 69 638 175 223 539 330 1231 362 99 5 729 5 1400 2 671 -4 1868 -7 2660
-7z m-3475 -4143 c237 -49 407 -138 551 -288 82 -87 120 -142 174 -257 75
-158 116 -328 135 -562 6 -69 10 -592 10 -1232 l0 -1113 -1320 0 -1320 0 0
1328 0 1327 82 110 c156 207 367 397 573 514 160 91 378 164 570 190 113 16
434 5 545 -17z m5970 3 c282 -51 515 -169 690 -351 160 -166 266 -363 345
-638 14 -48 25 -90 25 -92 0 -2 -639 -4 -1420 -4 -1215 0 -1420 2 -1420 14 0
29 62 204 105 293 110 232 268 416 480 556 108 71 161 99 274 142 105 40 224
72 345 90 123 19 447 13 576 -10z m8155 1 c284 -52 502 -161 681 -340 170
-170 284 -381 359 -658 l24 -88 -1420 0 c-1303 0 -1419 1 -1419 16 0 9 15 63
34 119 158 472 516 803 1001 925 62 16 146 33 187 39 108 14 445 6 553 -13z
m-17775 -3156 l0 -300 -382 0 -381 0 114 58 c63 31 153 84 199 117 96 69 290
252 375 355 33 38 63 70 67 70 4 0 8 -135 8 -300z"/>
</g>
</svg>
